# xmcd CD database file
#
# Track frame offsets:
#	150
#	12924
#	22633
#	33638
#	49681
#	61392
#	73597
#	86759
#	99076
#	113362
#	128093
#	140608
#	156440
#	169665
#	184347
#	198762
#	220315
#	231357
#	246432
#	259939
#	272678
#
# Disc length: 3847 seconds
#
# Revision: 1
# Processed by: cddbd v1.5.2PL0 Copyright (c) Steve Scherf et al.
# Submitted via: CDex 1.51
#
DISCID=240f0515
DTITLE=Micheal G Crossley - Mama's Hungry Eyes
DYEAR=2007
DGENRE=Country
TTITLE0=Okie From Muskogee
TTITLE1=Mama Tried
TTITLE2=Working Man Blues
TTITLE3=Mama's Hungrey Eyes
TTITLE4=Today I Started Loving You Again
TTITLE5=My Friends Are Gonna Be Strangers
TTITLE6=Bottle Let Me Down
TTITLE7=Sing Me Back Home
TTITLE8=I'm A Lonesome Furgitive
TTITLE9=Silver Wings
TTITLE10=Let's Chase Each Other Around The Room Tonight
TTITLE11=Daddy Frank
TTITLE12=Swingin' Doors
TTITLE13=I Threw Away The Rose
TTITLE14=Branded Man
TTITLE15=Think I'll Just Stay Here And Drink
TTITLE16=The Old Man From The Mountain
TTITLE17=Twinkle Twinkle Little Star
TTITLE18=Big City
TTITLE19=Fighting Side Of Me
TTITLE20=It's Not Love But It's Not Bad
EXTD=YEAR: 2007
EXTT0=
EXTT1=
EXTT2=
EXTT3=
EXTT4=
EXTT5=
EXTT6=
EXTT7=
EXTT8=
EXTT9=
EXTT10=
EXTT11=
EXTT12=
EXTT13=
EXTT14=
EXTT15=
EXTT16=
EXTT17=
EXTT18=
EXTT19=
EXTT20=
PLAYORDER=
